<svg width="15" height="15" viewBox="0 0 15 15" fill="none" xmlns="http://www.w3.org/2000/svg">
<g opacity="0.7">
<path d="M7 0V2H8V0H7Z" fill="black"/>
<path d="M3.35448 3.646L1.85448 2.146L1.14648 2.854L2.64648 4.354L3.35448 3.646Z" fill="black"/>
<path d="M12.3545 4.354L13.8545 2.854L13.1465 2.146L11.6465 3.646L12.3545 4.354Z" fill="black"/>
<path d="M7.49996 3C6.5467 2.99984 5.62539 3.34364 4.90526 3.96823C4.18514 4.59283 3.71456 5.45629 3.57996 6.4L3.56996 6.47C3.49394 6.99574 3.52473 7.53141 3.66046 8.04498C3.7962 8.55855 4.03411 9.03947 4.35996 9.459C4.74296 9.954 4.99996 10.427 4.99996 10.901V12.5C4.99996 12.6326 5.05264 12.7598 5.14641 12.8536C5.24017 12.9473 5.36735 13 5.49996 13H9.49996C9.63257 13 9.75975 12.9473 9.85351 12.8536C9.94728 12.7598 9.99996 12.6326 9.99996 12.5V10.901C9.99996 10.427 10.257 9.954 10.64 9.459C11.27 8.645 11.588 7.584 11.43 6.469L11.42 6.399C11.2851 5.45547 10.8145 4.59225 10.0944 3.96786C9.37426 3.34346 8.45307 2.99981 7.49996 3Z" fill="black"/>
<path d="M0 8H2V7H0V8Z" fill="black"/>
<path d="M13 8H15V7H13V8Z" fill="black"/>
<path d="M6 15H9V14H6V15Z" fill="black"/>
</g>
</svg>
