<svg width="19" height="19" viewBox="0 0 19 19" fill="none" xmlns="http://www.w3.org/2000/svg">
<path d="M2.983 5.1968C4.1914 5.1968 5.171 4.2172 5.171 3.0088C5.171 1.8004 4.1914 0.820801 2.983 0.820801C1.7746 0.820801 0.794998 1.8004 0.794998 3.0088C0.794998 4.2172 1.7746 5.1968 2.983 5.1968Z" fill="white"/>
<path d="M7.237 6.85518V18.9942H11.006V12.9912C11.006 11.4072 11.304 9.87318 13.268 9.87318C15.205 9.87318 15.229 11.6842 15.229 13.0912V18.9952H19V12.3382C19 9.06818 18.296 6.55518 14.474 6.55518C12.639 6.55518 11.409 7.56218 10.906 8.51518H10.855V6.85518H7.237V6.85518ZM1.095 6.85518H4.87V18.9942H1.095V6.85518Z" fill="white"/>
</svg>
