<svg width="42" height="72" viewBox="0 0 42 72" fill="none" xmlns="http://www.w3.org/2000/svg">
<path d="M36.9627 0H4.86309C2.1888 0 0 2.18674 0 4.86309V67.1349C0 69.8112 2.1888 72 4.86309 72H36.9627C39.637 72 41.8258 69.8153 41.8258 67.1369V4.86309C41.8258 2.18674 39.637 0 36.9627 0ZM15.7783 3.50537H26.0475C26.3726 3.50537 26.6359 3.76869 26.6359 4.09577C26.6359 4.4208 26.3726 4.68411 26.0475 4.68411H15.7783C15.4533 4.68411 15.1899 4.4208 15.1899 4.09577C15.1899 3.76869 15.4533 3.50537 15.7783 3.50537ZM20.9129 69.5685C19.5696 69.5685 18.4814 68.4802 18.4814 67.1349C18.4814 65.7895 19.5696 64.7033 20.9129 64.7033C22.2562 64.7033 23.3445 65.7895 23.3445 67.1349C23.3445 68.4802 22.2562 69.5685 20.9129 69.5685ZM38.4418 63H3.384V7.71223H38.4418V63Z" fill="#FF4081"/>
<g clip-path="url(#clip0)">
<path fill-rule="evenodd" clip-rule="evenodd" d="M20.1653 32.5141L23.7744 33.5151L31.0872 35.5432L33.064 28.4472C34.0794 24.8024 31.9209 20.9903 28.268 19.9771C24.6134 18.9639 20.7945 21.1158 19.7772 24.7623L18.6062 28.9704C18.6062 31.541 19.2878 32.2717 20.1653 32.5141Z" fill="#FF4081"/>
<path fill-rule="evenodd" clip-rule="evenodd" d="M29.9607 27.5857L27.984 34.6816L31.0881 35.5431L33.0649 28.4471C34.0803 24.8023 31.9218 20.9902 28.2689 19.9769C27.7341 19.8287 27.1975 19.7485 26.6644 19.7293C29.3804 21.2396 30.8277 24.4728 29.9607 27.5857Z" fill="#EF2A6D"/>
<path fill-rule="evenodd" clip-rule="evenodd" d="M31.0874 35.5436L27.9833 34.6821L26.0065 41.7781C25.4769 43.6807 24.1836 45.177 22.5476 46.028C22.3938 46.403 22.212 46.7553 22.0023 47.0865C21.8852 47.2731 21.7594 47.4528 21.6248 47.6254C24.9508 48.0317 28.1877 45.9512 29.1105 42.6396L31.0874 35.5436Z" fill="#DDDAEC"/>
<path fill-rule="evenodd" clip-rule="evenodd" d="M14.3454 27.126C11.1224 27.126 8.51123 29.7332 8.51123 32.949C8.51123 35.2178 9.80987 37.1814 11.708 38.1441C13.8804 39.1102 16.5493 39.0858 18.5785 36.9565C19.5713 35.9136 20.1813 34.5011 20.1813 32.949C20.1813 32.8025 20.176 32.6577 20.1655 32.5148C20.0641 31.1475 19.4909 29.9129 18.6065 28.9712C17.5421 27.8358 16.0267 27.126 14.3454 27.126Z" fill="#FFD772"/>
<path fill-rule="evenodd" clip-rule="evenodd" d="M16.1597 43.4121L22.9359 44.7532C23.5756 41.5549 21.861 38.2589 18.715 37.0085C18.6695 36.9911 18.6241 36.9736 18.5786 36.9562C17.8953 36.7016 17.1944 36.5603 16.5005 36.5272C14.7475 36.44 13.0329 37.0295 11.7081 38.1438C11.1715 38.592 10.7013 39.1274 10.3168 39.7394L16.1597 43.4121Z" fill="#B1E4F9"/>
<path fill-rule="evenodd" clip-rule="evenodd" d="M22.0017 47.0858L16.1518 44.1683L9.38444 42.0739C8.74825 45.2687 10.4628 48.5629 13.6054 49.8116C14.4408 50.1429 15.3042 50.3016 16.1519 50.3016H16.1641C18.2842 50.2998 20.3151 49.3163 21.6242 47.6247C21.7588 47.4521 21.8847 47.2724 22.0017 47.0858Z" fill="#B1E4F9"/>
<path fill-rule="evenodd" clip-rule="evenodd" d="M15.7836 27.3053C17.1207 28.7318 18.837 33.9339 15.4952 36.5515C15.8273 36.5183 16.1629 36.5097 16.5002 36.5271C17.1941 36.5602 17.895 36.7015 18.5783 36.956C19.5711 35.9132 20.1811 34.5006 20.1811 32.9485C20.1811 32.802 20.1759 32.6573 20.1653 32.5143C20.0639 31.1471 19.4907 29.9124 18.6063 28.9707C17.8548 28.1703 16.8813 27.5826 15.7836 27.3053Z" fill="#FBBA58"/>
<path fill-rule="evenodd" clip-rule="evenodd" d="M22.0022 47.0864L18.7426 45.7906C18.6762 46.0121 18.6046 46.2266 18.5242 46.4394C17.9317 48.0229 16.9721 49.3622 15.7784 50.2917C15.9025 50.2986 16.0283 50.3022 16.1524 50.3022H16.1647C18.2847 50.3004 20.3157 49.3168 21.6248 47.6253C21.7594 47.4526 21.8852 47.273 22.0022 47.0864Z" fill="#11B5E4"/>
<path fill-rule="evenodd" clip-rule="evenodd" d="M19.1746 43.2584L22.9359 44.7529C23.5756 41.5546 21.861 38.2586 18.715 37.0082C18.6695 36.9908 18.6241 36.9733 18.5786 36.9559C18.1364 36.7902 17.6873 36.6734 17.2381 36.6036C17.4706 36.9106 17.6855 37.2367 17.8813 37.5819C18.7062 39.0346 19.1887 40.7995 19.1887 42.7021C19.1887 42.8887 19.1852 43.0735 19.1746 43.2584Z" fill="#11B5E4"/>
<path fill-rule="evenodd" clip-rule="evenodd" d="M22.9357 44.7523L15.6597 41.8609L10.3167 39.7386C10.0964 40.0873 9.90418 40.4623 9.74515 40.8599C9.58612 41.261 9.46726 41.6656 9.38513 42.0737L17.1418 45.1552L22.0025 47.0857C22.2244 46.7351 22.4167 46.3585 22.5757 45.9591C22.7347 45.5615 22.8536 45.157 22.9357 44.7523Z" fill="#11B5E4"/>
<path fill-rule="evenodd" clip-rule="evenodd" d="M18.7435 45.7904L22.0031 47.0862C22.2251 46.7356 22.4174 46.3589 22.5764 45.9596C22.7354 45.562 22.8543 45.1574 22.9364 44.7528L19.1752 43.2583C19.1315 44.1424 18.983 44.9934 18.7435 45.7904Z" fill="#0DA0CA"/>
</g>
<defs>
<clipPath id="clip0">
<rect width="30.5753" height="30.5753" fill="white" transform="translate(5.62531 19.7258)"/>
</clipPath>
</defs>
</svg>
