<svg width="16" height="16" viewBox="0 0 16 16" fill="none" xmlns="http://www.w3.org/2000/svg">
<path d="M8.02 7.52C8.37333 7.52 8.66667 7.49 8.9 7.43C9.14 7.36333 9.33 7.27 9.47 7.15C9.61 7.03 9.70667 6.88 9.76 6.7C9.82 6.52 9.85 6.31333 9.85 6.08C9.85 5.85333 9.82333 5.65667 9.77 5.49C9.72333 5.32333 9.63667 5.18667 9.51 5.08C9.38333 4.96667 9.21333 4.88333 9 4.83C8.78667 4.77 8.51667 4.74 8.19 4.74H7V7.52H8.02ZM8.19 3.31C9.39 3.31 10.2733 3.52333 10.84 3.95C11.4067 4.37667 11.69 5.00667 11.69 5.84C11.69 6.44667 11.5267 6.97333 11.2 7.42C10.8733 7.86 10.3733 8.17333 9.7 8.36C9.83333 8.44 9.94333 8.54 10.03 8.66C10.1233 8.77333 10.21 8.90667 10.29 9.06L12.33 12.25H10.54C10.28 12.25 10.0933 12.1533 9.98 11.96L8.27 9.16C8.20333 9.06667 8.13 8.99667 8.05 8.95C7.97 8.89667 7.84333 8.87 7.67 8.87H7V12.25H5.14V3.31H8.19ZM8.27 14.08C8.84333 14.08 9.39667 14.0067 9.93 13.86C10.4633 13.7133 10.9567 13.5067 11.41 13.24C11.87 12.9667 12.2867 12.64 12.66 12.26C13.04 11.88 13.3633 11.4567 13.63 10.99C13.8967 10.5233 14.1033 10.0233 14.25 9.49C14.3967 8.95 14.47 8.38667 14.47 7.8C14.47 7.21333 14.3967 6.65 14.25 6.11C14.1033 5.56333 13.8967 5.05667 13.63 4.59C13.3633 4.12333 13.04 3.7 12.66 3.32C12.2867 2.93333 11.87 2.60333 11.41 2.33C10.9567 2.05667 10.4633 1.84667 9.93 1.7C9.39667 1.54667 8.84333 1.47 8.27 1.47C7.41 1.47 6.60333 1.63667 5.85 1.97C5.10333 2.29667 4.45333 2.74667 3.9 3.32C3.34667 3.88667 2.91 4.55667 2.59 5.33C2.27667 6.09667 2.12 6.92 2.12 7.8C2.12 8.68 2.27667 9.50333 2.59 10.27C2.91 11.03 3.34667 11.6933 3.9 12.26C4.45333 12.82 5.10333 13.2633 5.85 13.59C6.60333 13.9167 7.41 14.08 8.27 14.08ZM8.27 0.439999C8.94333 0.439999 9.59333 0.529999 10.22 0.71C10.8467 0.883332 11.4333 1.13 11.98 1.45C12.5267 1.77 13.0233 2.15333 13.47 2.6C13.9167 3.04667 14.3 3.54333 14.62 4.09C14.94 4.63667 15.1867 5.22333 15.36 5.85C15.5333 6.47667 15.62 7.12667 15.62 7.8C15.62 8.47333 15.53 9.12333 15.35 9.75C15.1767 10.3767 14.93 10.9633 14.61 11.51C14.2967 12.05 13.9167 12.5433 13.47 12.99C13.0233 13.4367 12.5267 13.82 11.98 14.14C11.4333 14.46 10.8467 14.7067 10.22 14.88C9.59333 15.0533 8.94333 15.14 8.27 15.14C7.59667 15.14 6.94667 15.0533 6.32 14.88C5.69333 14.7067 5.10667 14.46 4.56 14.14C4.02 13.82 3.52667 13.4367 3.08 12.99C2.63333 12.5433 2.25 12.05 1.93 11.51C1.61 10.9633 1.36333 10.3767 1.19 9.75C1.01667 9.12333 0.93 8.47333 0.93 7.8C0.93 7.12667 1.01667 6.47667 1.19 5.85C1.36333 5.22333 1.61 4.63667 1.93 4.09C2.25 3.54333 2.63333 3.04667 3.08 2.6C3.52667 2.15333 4.02 1.77 4.56 1.45C5.10667 1.13 5.69333 0.883332 6.32 0.71C6.94667 0.529999 7.59667 0.439999 8.27 0.439999Z" fill="#FF4081"/>
</svg>
