<svg width="24" height="24" viewBox="0 0 24 24" fill="none" xmlns="http://www.w3.org/2000/svg">
<path d="M21.6885 6.70054C21.5043 5.5401 20.4434 4.52601 19.2693 4.39148C14.4779 3.86935 9.64393 3.86951 4.85257 4.39195C3.68266 4.52601 2.62179 5.53992 2.43663 6.70476C1.85424 10.5096 1.85446 14.381 2.43729 18.1859C2.6217 19.3463 3.68266 20.3603 4.85651 20.4946C7.24976 20.7557 9.65544 20.8865 12.0629 20.8863C14.4703 20.8865 16.876 20.7557 19.2693 20.4946L19.2731 20.4943C20.4431 20.3604 21.5042 19.3464 21.6892 18.1814C22.2716 14.3766 22.2713 10.5053 21.6885 6.70054ZM15.4789 13.0671L10.9789 16.0671C10.8659 16.1424 10.7346 16.1856 10.5991 16.1922C10.4635 16.1987 10.3287 16.1683 10.209 16.1043C10.0893 16.0402 9.98927 15.9449 9.91951 15.8285C9.84975 15.712 9.8129 15.5788 9.81288 15.4431V9.4431C9.81289 9.30735 9.84973 9.17414 9.9195 9.05769C9.98926 8.94123 10.0893 8.8459 10.209 8.78185C10.3287 8.71779 10.4635 8.68743 10.5991 8.69399C10.7347 8.70055 10.866 8.74379 10.9789 8.8191L15.4789 11.8191C15.5817 11.8876 15.6659 11.9804 15.7241 12.0892C15.7824 12.1981 15.8129 12.3196 15.8129 12.4431C15.8129 12.5666 15.7824 12.6881 15.7241 12.797C15.6659 12.9058 15.5817 12.9986 15.4789 13.0671H15.4789Z" fill="white"/>
</svg>
